<svg xmlns="http://www.w3.org/2000/svg" width="190" height="39" viewBox="0 0 190 39">
  <g id="Grupo_4" data-name="Grupo 4" transform="translate(-16 -48)">
    <g id="exploring-bugs" transform="translate(-14.224 20.709)">
      <g id="Grupo_3" data-name="Grupo 3" transform="translate(30.224 33.291)">
        <g id="_x32_4" transform="translate(0 0)">
          <g id="Grupo_1" data-name="Grupo 1" transform="translate(0 0)">
            <rect id="Retângulo_1" data-name="Retângulo 1" width="2.313" height="2.314" transform="translate(9.253 23.134)" fill="#fff"/>
            <rect id="Retângulo_2" data-name="Retângulo 2" width="2.314" height="2.314" transform="translate(6.94 20.82)" fill="#fff"/>
            <rect id="Retângulo_3" data-name="Retângulo 3" width="2.313" height="2.314" transform="translate(4.627)" fill="#fff"/>
            <rect id="Retângulo_4" data-name="Retângulo 4" width="2.313" height="2.314" transform="translate(16.194 23.134)" fill="#fff"/>
            <rect id="Retângulo_5" data-name="Retângulo 5" width="2.315" height="2.314" transform="translate(18.507 20.82)" fill="#fff"/>
            <path id="Caminho_2" data-name="Caminho 2" d="M194.257,226.186h3.123a10.628,10.628,0,0,1-1.6-13.879h-6.151v-2.314h-2.314v2.314H185v6.941h-2.313v2.314h-2.315V228.5h2.315v-4.627H185V228.5h2.313v-2.314h6.941Zm-6.941-9.252h2.314v4.627h-2.314Z" transform="translate(-180.376 -207.679)" fill="#fff"/>
            <path id="Caminho_3" data-name="Caminho 3" d="M278.151,230.566h-2.314v-2.314h-2.314v-6.941H273.1a6.2,6.2,0,0,0-4.2,8.5v-3.873h2.315v4.627h-1.919a6.219,6.219,0,0,0,4.23,2.89v-.579h2.314v.552a6.138,6.138,0,0,0,2.314-1v-1.868Z" transform="translate(-250.391 -216.684)" fill="#fff"/>
            <path id="Caminho_4" data-name="Caminho 4" d="M282.227,300.261v.053h.144C282.322,300.3,282.275,300.279,282.227,300.261Z" transform="translate(-261.406 -279.494)" fill="#fff"/>
          </g>
          <g id="Grupo_2" data-name="Grupo 2" transform="translate(14.865 1.311)">
            <path id="Caminho_6" data-name="Caminho 6" d="M334.991,279.976a2.478,2.478,0,1,0-3.3,3.7l.844.752,3.414-3.6Z" transform="translate(-314.965 -264.166)" fill="#fff"/>
            <path id="Caminho_7" data-name="Caminho 7" d="M350.9,294.121l-.435-.388-2.846-2.533-2.023-1.8-3.414,3.6,5.421,4.829s.01.007.015.011a2.472,2.472,0,0,0,2.844.288,2.428,2.428,0,0,0,.639-.5A2.475,2.475,0,0,0,350.9,294.121Z" transform="translate(-323.973 -272.163)" fill="#fff"/>
            <path id="Caminho_8" data-name="Caminho 8" d="M271.776,214.432a9.343,9.343,0,0,0-9.342-9.343,9.549,9.549,0,0,0-1.076.067,9.322,9.322,0,0,0-2.311.577c-.276.109-.543.229-.805.359a9.318,9.318,0,0,0-1.51.952,9.513,9.513,0,0,0-1.432,1.362,9.324,9.324,0,0,0,2.087,13.879,9.383,9.383,0,0,0,3.971,1.422,9.592,9.592,0,0,0,1.076.066,9.14,9.14,0,0,0,1.238-.091,9.45,9.45,0,0,0,2.314-.61A9.347,9.347,0,0,0,271.776,214.432Zm-5.79,6.661a7.489,7.489,0,0,1-2.314.779,7.6,7.6,0,0,1-1.238.111,7.553,7.553,0,1,1,3.551-.889Z" transform="translate(-253.091 -205.089)" fill="#fff"/>
          </g>
        </g>
      </g>
    </g>
    <text id="Tracker" transform="translate(89 79)" fill="#fff" font-size="33" font-family="Raleway-Bold, Raleway" font-weight="700"><tspan x="0" y="0">Tracker</tspan></text>
    <text id="b" transform="translate(69 79)" fill="#fff" font-size="33" font-family="Raleway-Light, Raleway" font-weight="300"><tspan x="0" y="0">b</tspan></text>
  </g>
</svg>
